<svg width="23" height="22" viewBox="0 0 23 22" fill="none" xmlns="http://www.w3.org/2000/svg">
<path fill-rule="evenodd" clip-rule="evenodd" d="M20.3665 9.92388C20.2535 10.5519 19.6965 11.0129 19.0365 11.0009H17.3665V2.00088H19.0545C19.6965 1.95188 20.2525 2.44788 20.3665 3.07688V9.92388ZM15.3665 11.7879L11.7585 19.9059C10.9515 19.6479 10.3665 18.8909 10.3665 18.0009V14.0009C10.3665 13.4479 9.91853 13.0009 9.36653 13.0009H3.69753C3.65153 12.9979 3.59053 12.9989 3.53353 12.9899C2.98853 12.9069 2.61253 12.3959 2.69453 11.8519L4.07553 2.85088C4.14953 2.36088 4.60153 2.02188 5.08653 2.00088H15.3665V11.7879ZM22.3575 2.86588C22.1355 1.22288 20.7305 -0.00012207 19.0945 -0.00012207C19.0755 -0.00012207 19.0555 -0.00012207 19.0365 0.00087793H5.09753C3.61053 0.0108779 2.32053 1.08088 2.09853 2.54888L0.717531 11.5509C0.470531 13.1859 1.59853 14.7179 3.23053 14.9659C3.39053 14.9909 3.55353 15.0029 3.70653 15.0009H8.36653V18.0009C8.36653 20.2069 10.1605 22.0009 12.3665 22.0009C12.7625 22.0009 13.1195 21.7679 13.2805 21.4069L17.0155 13.0009H19.0185C20.6885 13.0059 22.1325 11.7979 22.3575 10.1349C22.3635 10.0909 22.3665 10.0459 22.3665 10.0009V3.00088C22.3665 2.95588 22.3635 2.91088 22.3575 2.86588Z" fill="#313037"/>
</svg>
